v -1.000000 -1.000000 1.000000
v -1.000000 -0.388924 1.000000
v -1.000000 -1.000000 -3.053461
v -1.000000 -0.388924 -3.053461
v 5.884719 -0.388924 1.000000
v 5.884719 -0.388924 -3.053461
v -0.831897 -1.000000 -3.053461
v -0.831897 -1.000000 1.000000
v 5.725611 -1.000000 -3.053461
v -1.000000 -1.000000 -2.946133
v -0.831897 -1.000000 -2.946133
v 5.725611 -1.000000 -2.946133
v -1.000000 -1.000000 0.887925
v -0.831897 -1.000000 0.887925
v 5.725611 -1.000000 0.887925
v 5.884719 -1.000000 0.887925
v 5.884719 -1.700006 0.887925
v 5.725611 -1.700006 -2.946133
v -0.831897 -1.700006 -2.946133
v -1.000000 -1.700006 -2.946133
v 5.725611 -1.700006 0.887925
v 5.725611 -1.700006 -3.053461
v -0.831897 -1.700006 0.887925
v -0.831897 -1.700006 1.000000
v 5.884719 -1.700006 1.000000
v 5.725611 -1.700006 1.000000
v 5.884719 -1.700006 -3.053461
v 5.884719 -1.700006 -2.946133
v -1.000000 -1.700006 -3.053461
v -0.831897 -1.700006 -3.053461
v -1.000000 -1.700006 1.000000
v -1.000000 -1.700006 0.887925
v 5.884719 -1.000000 1.000000
v 5.884719 -1.000000 -3.053461
v 5.725611 -1.000000 1.000000
v 5.884719 -1.000000 -2.946133
v 5.884719 -2.346550 0.887925
v 5.725611 -2.346550 0.887925
v -0.831897 -2.346550 0.887925
v -1.000000 -2.346550 0.887925
v 5.884719 -2.346550 1.000000
v 5.884719 -2.346550 -2.946133
v 5.725611 -2.346550 -2.946133
v -0.831897 -2.346550 -2.946133
v -1.000000 -2.346550 -2.946133
v 5.725611 -2.346550 -3.053461
v -0.831897 -2.346550 -3.053461
v -1.000000 -2.346550 -3.053461
v 5.725611 -2.346550 1.000000
v 5.884719 -2.346550 -3.053461
v -0.831897 -2.346550 1.000000
v -1.000000 -2.346550 1.000000
v -0.683055 -0.388924 1.000000
v -0.683055 -0.388924 -3.053461
v -0.683055 -1.000000 1.000000
v -0.683055 -1.000000 -3.053461
v -1.000000 -0.388924 1.000000
v -1.000000 -0.388924 -3.053461
v -0.683055 -0.388924 1.000000
v -0.683055 -0.388924 -3.053461
v -0.983913 0.733369 0.794254
v -0.983913 0.733369 -2.847715
v -0.699143 0.733369 -2.847715
v -0.699143 0.733369 0.794254
v -0.848627 1.450035 -0.935935
v -0.848627 1.450035 -1.117526
v -0.834428 1.450035 -1.117526
v -0.834428 1.450035 -0.935935
vt 0.355111 0.735991
vt 0.146013 0.750000
vt 0.146013 0.735991
vt 0.355111 0.500000
vt 0.146013 0.513416
vt 0.146013 0.500000
vt 0.355111 0.513416
vt 0.125000 0.735991
vt 0.125000 0.513416
vt 0.375000 0.513416
vt 0.000000 0.000000
vt 0.125000 0.500000
vt 0.000000 0.000000
vt 0.000000 0.000000
vt 0.000000 0.000000
vt 0.000000 0.000000
vt 0.119246 0.715473
vt 0.000000 0.000000
vt 0.119246 0.476982
vt 0.125000 0.750000
vt 0.146013 0.750000
vt 0.146013 0.750000
vt 0.355111 0.513416
vt 0.375000 0.513416
vt 0.375000 0.513416
vt 0.146013 0.735991
vt 0.146013 0.735991
vt 0.375000 0.750000
vt 0.375000 0.735991
vt 0.375000 0.735991
vt 0.355111 0.750000
vt 0.375000 0.735991
vt 0.125000 0.750000
vt 0.375000 0.500000
vt 0.125000 0.513416
vt 0.125000 0.500000
vt 0.146013 0.500000
vt 0.375000 0.500000
vt 0.375000 0.750000
vt 0.146013 0.513416
vt 0.355111 0.500000
vt 0.125000 0.735991
vt 0.355111 0.750000
vt 0.355111 0.735991
vt 0.375000 0.500000
vt 0.355111 0.513416
vt 0.355111 0.500000
vt 0.146013 0.500000
vt 0.125000 0.513416
vt 0.125000 0.500000
vt 0.125000 0.750000
vt 0.125000 0.735991
vt 0.355111 0.750000
vt 0.355111 0.735991
vt 0.146013 0.513416
vt 0.375000 0.750000
vt 0.000000 0.000000
vt 0.000000 0.000000
vt 0.000000 0.000000
vt 0.000000 0.000000
vt 0.000000 0.000000
vt 0.000000 0.000000
vt 0.000000 0.000000
vt 0.000000 0.000000
vt 0.000000 0.000000
vt 0.000000 0.000000
vt 0.000000 0.000000
vt 0.000000 0.000000
vt 0.000000 0.000000
vt 0.000000 0.000000
vn 0.0000 -1.0000 0.0000
vn -1.0000 0.0000 0.0000
vn 0.0000 1.0000 0.0000
vn 0.0000 0.0000 1.0000
vn 1.0000 0.0000 0.0000
vn 0.0000 0.0000 -1.0000
vn 0.0000 0.9239 0.3827
vn 0.0000 0.1803 0.9836
vn -0.9999 0.0143 0.0000
vn 0.9999 0.0143 0.0000
vn 0.0000 0.1803 -0.9836
vn -0.9826 0.1855 0.0000
vn 0.9826 0.1855 0.0000
vn 0.0000 0.9239 -0.3827
f 15/1/1 8/2/1 14/3/1
f 9/4/1 11/5/1 7/6/1
f 12/7/1 14/3/1 11/5/1
f 11/5/1 13/8/1 10/9/1
f 36/10/1 15/1/1 12/7/1
f 4/11/2 3/12/2 10/9/2
f 53/13/3 6/14/3 54/15/3
f 33/16/4 53/13/4 55/17/4
f 6/14/5 33/16/5 34/18/5
f 54/15/6 34/18/6 56/19/6
f 31/20/4 51/21/4 24/22/4
f 18/23/4 42/24/4 28/25/4
f 24/22/5 39/26/5 23/27/5
f 25/28/5 37/29/5 17/30/5
f 35/31/3 16/32/3 15/1/3
f 1/33/3 14/3/3 13/8/3
f 10/9/3 7/6/3 3/12/3
f 12/7/3 34/34/3 9/4/3
f 3/12/2 20/35/2 10/9/2
f 7/6/6 29/36/6 3/12/6
f 11/5/5 30/37/5 7/6/5
f 36/10/5 27/38/5 34/34/5
f 9/4/2 18/23/2 12/7/2
f 35/31/4 25/28/4 33/39/4
f 10/9/4 19/40/4 11/5/4
f 1/33/4 24/22/4 8/2/4
f 12/7/4 28/25/4 36/10/4
f 8/2/5 23/27/5 14/3/5
f 33/39/5 17/30/5 16/32/5
f 34/34/6 22/41/6 9/4/6
f 14/3/6 32/42/6 13/8/6
f 15/1/2 26/43/2 35/31/2
f 13/8/2 31/20/2 1/33/2
f 16/32/6 21/44/6 15/1/6
f 50/45/1 43/46/1 46/47/1
f 47/48/1 45/49/1 48/50/1
f 39/26/1 52/51/1 40/52/1
f 37/29/1 49/53/1 38/54/1
f 20/35/4 44/55/4 19/40/4
f 26/43/4 41/56/4 25/28/4
f 22/41/2 43/46/2 18/23/2
f 28/25/5 50/45/5 27/38/5
f 19/40/5 47/48/5 30/37/5
f 30/37/6 48/50/6 29/36/6
f 29/36/2 45/49/2 20/35/2
f 17/30/6 38/54/6 21/44/6
f 32/42/2 52/51/2 31/20/2
f 21/44/2 49/53/2 26/43/2
f 23/27/6 40/52/6 32/42/6
f 27/38/6 46/47/6 22/41/6
f 4/11/6 56/19/6 3/12/6
f 55/17/4 2/57/4 1/33/4
f 64/58/7 65/59/7 61/60/7
f 60/61/1 57/62/1 58/63/1
f 59/64/8 61/60/8 57/62/8
f 57/62/9 62/65/9 58/63/9
f 60/61/10 64/58/10 59/64/10
f 58/63/11 63/66/11 60/61/11
f 65/59/3 67/67/3 66/68/3
f 61/60/12 66/68/12 62/65/12
f 63/66/13 68/69/13 64/58/13
f 62/65/14 67/67/14 63/66/14
f 15/1/1 35/31/1 8/2/1
f 9/4/1 12/7/1 11/5/1
f 12/7/1 15/1/1 14/3/1
f 11/5/1 14/3/1 13/8/1
f 36/10/1 16/32/1 15/1/1
f 10/9/2 13/8/2 4/11/2
f 13/8/2 1/33/2 2/57/2
f 4/11/2 13/8/2 2/57/2
f 53/13/3 5/70/3 6/14/3
f 33/16/4 5/70/4 53/13/4
f 6/14/5 5/70/5 33/16/5
f 54/15/6 6/14/6 34/18/6
f 31/20/4 52/51/4 51/21/4
f 18/23/4 43/46/4 42/24/4
f 24/22/5 51/21/5 39/26/5
f 25/28/5 41/56/5 37/29/5
f 35/31/3 33/39/3 16/32/3
f 1/33/3 8/2/3 14/3/3
f 10/9/3 11/5/3 7/6/3
f 12/7/3 36/10/3 34/34/3
f 3/12/2 29/36/2 20/35/2
f 7/6/6 30/37/6 29/36/6
f 11/5/5 19/40/5 30/37/5
f 36/10/5 28/25/5 27/38/5
f 9/4/2 22/41/2 18/23/2
f 35/31/4 26/43/4 25/28/4
f 10/9/4 20/35/4 19/40/4
f 1/33/4 31/20/4 24/22/4
f 12/7/4 18/23/4 28/25/4
f 8/2/5 24/22/5 23/27/5
f 33/39/5 25/28/5 17/30/5
f 34/34/6 27/38/6 22/41/6
f 14/3/6 23/27/6 32/42/6
f 15/1/2 21/44/2 26/43/2
f 13/8/2 32/42/2 31/20/2
f 16/32/6 17/30/6 21/44/6
f 50/45/1 42/24/1 43/46/1
f 47/48/1 44/55/1 45/49/1
f 39/26/1 51/21/1 52/51/1
f 37/29/1 41/56/1 49/53/1
f 20/35/4 45/49/4 44/55/4
f 26/43/4 49/53/4 41/56/4
f 22/41/2 46/47/2 43/46/2
f 28/25/5 42/24/5 50/45/5
f 19/40/5 44/55/5 47/48/5
f 30/37/6 47/48/6 48/50/6
f 29/36/2 48/50/2 45/49/2
f 17/30/6 37/29/6 38/54/6
f 32/42/2 40/52/2 52/51/2
f 21/44/2 38/54/2 49/53/2
f 23/27/6 39/26/6 40/52/6
f 27/38/6 50/45/6 46/47/6
f 4/11/6 54/15/6 56/19/6
f 55/17/4 53/13/4 2/57/4
f 64/58/7 68/69/7 65/59/7
f 60/61/1 59/64/1 57/62/1
f 59/64/8 64/58/8 61/60/8
f 57/62/9 61/60/9 62/65/9
f 60/61/10 63/66/10 64/58/10
f 58/63/11 62/65/11 63/66/11
f 65/59/3 68/69/3 67/67/3
f 61/60/12 65/59/12 66/68/12
f 63/66/13 67/67/13 68/69/13
f 62/65/14 66/68/14 67/67/14