# Blender v2.82 (sub 7) OBJ File: 'Shelf.blend'
# www.blender.org
o Cube
v 0.437257 12.133118 -6.765009
v 0.437257 -0.133117 -6.765009
v 0.437257 12.133118 6.772283
v 0.437257 -0.133117 6.772283
v 0.004850 12.133118 -6.765009
v 0.004850 -0.133117 -6.765009
v 0.004850 12.133118 6.772283
v 0.004850 -0.133117 6.772283
v 0.437257 8.044373 -6.765009
v 0.437257 3.955628 -6.765009
v 0.004850 3.955628 6.772283
v 0.004850 8.044373 6.772283
v 0.437257 8.044373 6.772283
v 0.437257 3.955628 6.772283
v 0.004850 8.044373 -6.765009
v 0.004850 3.955628 -6.765009
v 0.004850 11.721020 6.772283
v 0.437257 11.721020 -6.765009
v 0.437257 11.721020 6.772283
v 0.004850 11.721020 -6.765009
v 0.437257 8.464588 -6.765009
v 0.437257 8.464588 6.772283
v 0.004850 8.464588 -6.765009
v 0.004850 8.464588 6.772283
v 0.437257 4.296499 -6.765009
v 0.004850 4.296499 6.772283
v 0.437257 4.296499 6.772283
v 0.004850 4.296499 -6.765009
v 0.437257 0.239556 -6.765009
v 0.437257 0.239556 6.772283
v 0.004850 0.239556 -6.765009
v 0.004850 0.239556 6.772283
v 0.004850 -0.133117 -6.334731
v 0.004850 -0.133117 6.382014
v 0.437257 12.133118 -6.334731
v 0.437257 12.133118 6.382014
v 0.004850 12.133118 6.382014
v 0.004850 12.133118 -6.334731
v 0.437257 -0.133117 6.382014
v 0.437257 -0.133117 -6.334731
v 0.437257 3.955628 -6.334731
v 0.437257 3.955628 6.382014
v 0.437257 8.044373 -6.334731
v 0.437257 8.044373 6.382014
v 0.004850 3.955628 6.382014
v 0.004850 3.955628 -6.334731
v 0.004850 8.044373 6.382014
v 0.004850 8.044373 -6.334731
v 0.437257 11.721020 -6.334731
v 0.437257 11.721020 6.382014
v 0.004850 11.721020 6.382014
v 0.004850 11.721020 -6.334731
v 0.004850 8.464588 6.382014
v 0.004850 8.464588 -6.334731
v 0.437257 8.464588 -6.334731
v 0.437257 8.464588 6.382014
v 0.004850 4.296499 6.382014
v 0.004850 4.296499 -6.334731
v 0.437257 4.296499 -6.334731
v 0.437257 4.296499 6.382014
v 0.004850 0.239556 6.382014
v 0.004850 0.239556 -6.334731
v 0.437257 0.239556 -6.334731
v 0.437257 0.239556 6.382014
v 2.705803 0.239556 -6.765009
v 2.705803 -0.133117 -6.765009
v 2.705803 0.239556 6.772283
v 2.705803 -0.133117 6.772283
v 2.705803 12.133118 6.382014
v 2.705803 12.133118 6.772283
v 2.705803 -0.133117 -6.334731
v 2.705803 8.464588 -6.765009
v 2.705803 8.044373 -6.765009
v 2.705803 4.296499 -6.765009
v 2.705803 3.955628 -6.765009
v 2.705803 8.464588 6.772283
v 2.705803 8.044373 6.772283
v 2.705803 4.296499 6.772283
v 2.705803 3.955628 6.772283
v 2.705803 3.955628 6.382014
v 2.705803 8.044373 6.382014
v 2.705803 12.133118 -6.765009
v 2.705803 11.721020 -6.765009
v 2.705803 11.721020 6.772283
v 2.705803 11.721020 6.382014
v 2.705803 8.464588 6.382014
v 2.705803 4.296499 6.382014
v 2.705803 0.239556 6.382014
v 2.705803 12.133118 -6.334731
v 2.705803 -0.133117 6.382014
v 2.705803 3.955628 -6.334731
v 2.705803 8.044373 -6.334731
v 2.705803 11.721020 -6.334731
v 2.705803 8.464588 -6.334731
v 2.705803 4.296499 -6.334731
v 2.705803 0.239556 -6.334731
vt 0.875000 0.667110
vt 0.625000 0.750000
vt 0.625000 0.667110
vt 0.616601 1.000000
vt 0.616601 0.750000
vt 0.625000 0.166223
vt 0.616601 0.250000
vt 0.616601 0.166223
vt 0.375000 0.667110
vt 0.125000 0.750000
vt 0.125000 0.667110
vt 0.382596 0.750000
vt 0.458333 0.750000
vt 0.458333 0.750000
vt 0.625000 0.250000
vt 0.616601 0.500000
vt 0.458333 0.250000
vt 0.382596 0.500000
vt 0.382596 0.250000
vt 0.541667 0.250000
vt 0.465281 0.500000
vt 0.465281 0.250000
vt 0.375000 0.750000
vt 0.375000 0.750000
vt 0.550231 0.583776
vt 0.616601 0.583776
vt 0.616601 0.583776
vt 0.458333 0.166223
vt 0.382596 0.166223
vt 0.541667 0.166223
vt 0.465281 0.166223
vt 0.382596 1.000000
vt 0.541667 0.750000
vt 0.465281 1.000000
vt 0.465281 0.750000
vt 0.550231 0.500000
vt 0.550231 0.250000
vt 0.541667 0.500000
vt 0.541667 0.500000
vt 0.550231 0.166223
vt 0.550231 1.000000
vt 0.550231 0.750000
vt 0.541667 1.000000
vt 0.458333 0.500000
vt 0.382596 0.500000
vt 0.458333 1.000000
vt 0.375000 0.500000
vt 0.375000 0.583776
vt 0.375000 0.583776
vt 0.375000 1.000000
vt 0.375000 0.250000
vt 0.375000 0.166223
vt 0.382596 0.667110
vt 0.382596 0.583776
vt 0.382596 0.583776
vt 0.616601 0.750000
vt 0.616601 0.667110
vt 0.616601 0.667110
vt 0.382596 0.000000
vt 0.375000 0.082890
vt 0.375000 0.000000
vt 0.382596 0.082890
vt 0.625000 0.583776
vt 0.625000 0.583776
vt 0.550231 0.500000
vt 0.465281 0.000000
vt 0.458333 0.082890
vt 0.458333 0.000000
vt 0.465281 0.082890
vt 0.625000 0.500000
vt 0.625000 0.500000
vt 0.458333 0.667110
vt 0.382596 0.667110
vt 0.550231 0.000000
vt 0.541667 0.082890
vt 0.541667 0.000000
vt 0.550231 0.082890
vt 0.616601 0.000000
vt 0.616601 0.082890
vt 0.625000 0.667110
vt 0.550231 0.667110
vt 0.458333 0.583776
vt 0.458333 0.583776
vt 0.541667 0.583776
vt 0.465281 0.667110
vt 0.465281 0.583776
vt 0.465281 0.583776
vt 0.541667 0.750000
vt 0.541667 0.667110
vt 0.465281 0.667110
vt 0.125000 0.583776
vt 0.125000 0.500000
vt 0.625000 0.000000
vt 0.625000 0.082890
vt 0.875000 0.500000
vt 0.875000 0.583776
vt 0.458333 0.667110
vt 0.382596 0.750000
vt 0.541667 0.667110
vt 0.465281 0.750000
vt 0.550231 0.750000
vt 0.550231 0.667110
vt 0.375000 0.667110
vt 0.375000 0.500000
vt 0.465281 0.500000
vt 0.458333 0.500000
vt 0.541667 0.583776
vt 0.550231 0.583776
vt 0.616601 0.500000
vt 0.625000 0.750000
vt 0.875000 0.750000
vt 0.625000 1.000000
vn 0.0000 1.0000 0.0000
vn 0.0000 0.0000 1.0000
vn -1.0000 0.0000 0.0000
vn 0.0000 -1.0000 0.0000
vn 0.0000 0.0000 -1.0000
vn 1.0000 0.0000 0.0000
s off
f 37/1/1 3/2/1 36/3/1
f 3/2/2 17/4/2 19/5/2
f 38/6/3 20/7/3 52/8/3
f 39/9/4 8/10/4 34/11/4
f 30/12/2 79/13/2 14/14/2
f 5/15/5 18/16/5 20/7/5
f 16/17/5 29/18/5 31/19/5
f 15/20/5 25/21/5 28/22/5
f 39/9/4 68/23/4 4/24/4
f 55/25/2 93/26/2 49/27/2
f 46/28/3 31/19/3 62/29/3
f 48/30/3 28/22/3 58/31/3
f 14/14/2 32/32/2 30/12/2
f 13/33/2 26/34/2 27/35/2
f 20/7/5 21/36/5 23/37/5
f 21/36/5 73/38/5 9/39/5
f 52/8/3 23/37/3 54/40/3
f 19/5/2 24/41/2 22/42/2
f 22/42/2 12/43/2 13/33/2
f 54/40/3 15/20/3 48/30/3
f 10/44/5 65/45/5 29/18/5
f 23/37/5 9/39/5 15/20/5
f 27/35/2 11/46/2 14/14/2
f 58/31/3 16/17/3 46/28/3
f 2/47/4 71/48/4 40/49/4
f 28/22/5 10/44/5 16/17/5
f 30/12/2 8/50/2 4/24/2
f 62/29/3 6/51/3 33/52/3
f 64/53/1 96/54/1 63/55/1
f 31/19/5 2/47/5 6/51/5
f 22/42/2 84/56/2 19/5/2
f 49/27/4 85/57/4 50/58/4
f 32/59/3 34/60/3 8/61/3
f 61/62/3 33/52/3 34/60/3
f 36/3/1 89/63/1 35/64/1
f 18/16/5 72/65/5 21/36/5
f 26/66/3 45/67/3 11/68/3
f 57/69/3 46/28/3 45/67/3
f 35/64/1 82/70/1 1/71/1
f 42/72/5 88/73/5 64/53/5
f 24/74/3 47/75/3 12/76/3
f 53/77/3 48/30/3 47/75/3
f 17/78/3 53/77/3 24/74/3
f 51/79/3 54/40/3 53/77/3
f 3/2/1 69/80/1 36/3/1
f 49/27/6 56/81/6 55/25/6
f 12/76/3 57/69/3 26/66/3
f 47/75/3 58/31/3 57/69/3
f 11/68/3 61/62/3 32/59/3
f 45/67/3 62/29/3 61/62/3
f 63/55/2 91/82/2 41/83/2
f 43/84/6 60/85/6 59/86/6
f 60/85/1 95/87/1 59/86/1
f 41/83/6 64/53/6 63/55/6
f 27/35/2 77/88/2 13/33/2
f 44/89/5 87/90/5 60/85/5
f 2/47/4 33/91/4 6/92/4
f 40/49/4 34/11/4 33/91/4
f 7/93/3 51/79/3 17/78/3
f 37/94/3 52/8/3 51/79/3
f 5/95/1 35/64/1 1/71/1
f 38/96/1 36/3/1 35/64/1
f 69/80/6 84/56/6 85/57/6
f 80/97/6 67/98/6 88/73/6
f 81/99/6 78/100/6 87/90/6
f 85/57/6 76/101/6 86/102/6
f 86/102/6 77/88/6 81/99/6
f 87/90/6 79/13/6 80/97/6
f 88/73/6 68/23/6 90/103/6
f 65/45/6 71/48/6 66/104/6
f 96/54/6 90/103/6 71/48/6
f 74/105/6 91/82/6 75/106/6
f 95/87/6 80/97/6 91/82/6
f 72/65/6 92/107/6 73/38/6
f 94/108/6 81/99/6 92/107/6
f 83/109/6 94/108/6 72/65/6
f 73/38/6 95/87/6 74/105/6
f 75/106/6 96/54/6 65/45/6
f 82/70/6 93/26/6 83/109/6
f 89/63/6 85/57/6 93/26/6
f 25/21/5 75/106/5 10/44/5
f 50/58/5 86/102/5 56/81/5
f 40/49/4 90/103/4 39/9/4
f 41/83/4 80/97/4 42/72/4
f 29/18/5 66/104/5 2/47/5
f 1/71/5 83/109/5 18/16/5
f 56/81/1 94/108/1 55/25/1
f 13/33/2 76/101/2 22/42/2
f 19/5/2 70/110/2 3/2/2
f 14/14/2 78/100/2 27/35/2
f 9/39/5 74/105/5 25/21/5
f 43/84/4 81/99/4 44/89/4
f 4/24/2 67/98/2 30/12/2
f 59/86/2 92/107/2 43/84/2
f 37/1/1 7/111/1 3/2/1
f 3/2/2 7/112/2 17/4/2
f 38/6/3 5/15/3 20/7/3
f 39/9/4 4/24/4 8/10/4
f 30/12/2 67/98/2 79/13/2
f 5/15/5 1/71/5 18/16/5
f 16/17/5 10/44/5 29/18/5
f 15/20/5 9/39/5 25/21/5
f 39/9/4 90/103/4 68/23/4
f 55/25/2 94/108/2 93/26/2
f 46/28/3 16/17/3 31/19/3
f 48/30/3 15/20/3 28/22/3
f 14/14/2 11/46/2 32/32/2
f 13/33/2 12/43/2 26/34/2
f 20/7/5 18/16/5 21/36/5
f 21/36/5 72/65/5 73/38/5
f 52/8/3 20/7/3 23/37/3
f 19/5/2 17/4/2 24/41/2
f 22/42/2 24/41/2 12/43/2
f 54/40/3 23/37/3 15/20/3
f 10/44/5 75/106/5 65/45/5
f 23/37/5 21/36/5 9/39/5
f 27/35/2 26/34/2 11/46/2
f 58/31/3 28/22/3 16/17/3
f 2/47/4 66/104/4 71/48/4
f 28/22/5 25/21/5 10/44/5
f 30/12/2 32/32/2 8/50/2
f 62/29/3 31/19/3 6/51/3
f 64/53/1 88/73/1 96/54/1
f 31/19/5 29/18/5 2/47/5
f 22/42/2 76/101/2 84/56/2
f 49/27/4 93/26/4 85/57/4
f 32/59/3 61/62/3 34/60/3
f 61/62/3 62/29/3 33/52/3
f 36/3/1 69/80/1 89/63/1
f 18/16/5 83/109/5 72/65/5
f 26/66/3 57/69/3 45/67/3
f 57/69/3 58/31/3 46/28/3
f 35/64/1 89/63/1 82/70/1
f 42/72/5 80/97/5 88/73/5
f 24/74/3 53/77/3 47/75/3
f 53/77/3 54/40/3 48/30/3
f 17/78/3 51/79/3 53/77/3
f 51/79/3 52/8/3 54/40/3
f 3/2/1 70/110/1 69/80/1
f 49/27/6 50/58/6 56/81/6
f 12/76/3 47/75/3 57/69/3
f 47/75/3 48/30/3 58/31/3
f 11/68/3 45/67/3 61/62/3
f 45/67/3 46/28/3 62/29/3
f 63/55/2 96/54/2 91/82/2
f 43/84/6 44/89/6 60/85/6
f 60/85/1 87/90/1 95/87/1
f 41/83/6 42/72/6 64/53/6
f 27/35/2 78/100/2 77/88/2
f 44/89/5 81/99/5 87/90/5
f 2/47/4 40/49/4 33/91/4
f 40/49/4 39/9/4 34/11/4
f 7/93/3 37/94/3 51/79/3
f 37/94/3 38/6/3 52/8/3
f 5/95/1 38/96/1 35/64/1
f 38/96/1 37/1/1 36/3/1
f 69/80/6 70/110/6 84/56/6
f 80/97/6 79/13/6 67/98/6
f 81/99/6 77/88/6 78/100/6
f 85/57/6 84/56/6 76/101/6
f 86/102/6 76/101/6 77/88/6
f 87/90/6 78/100/6 79/13/6
f 88/73/6 67/98/6 68/23/6
f 65/45/6 96/54/6 71/48/6
f 96/54/6 88/73/6 90/103/6
f 74/105/6 95/87/6 91/82/6
f 95/87/6 87/90/6 80/97/6
f 72/65/6 94/108/6 92/107/6
f 94/108/6 86/102/6 81/99/6
f 83/109/6 93/26/6 94/108/6
f 73/38/6 92/107/6 95/87/6
f 75/106/6 91/82/6 96/54/6
f 82/70/6 89/63/6 93/26/6
f 89/63/6 69/80/6 85/57/6
f 25/21/5 74/105/5 75/106/5
f 50/58/5 85/57/5 86/102/5
f 40/49/4 71/48/4 90/103/4
f 41/83/4 91/82/4 80/97/4
f 29/18/5 65/45/5 66/104/5
f 1/71/5 82/70/5 83/109/5
f 56/81/1 86/102/1 94/108/1
f 13/33/2 77/88/2 76/101/2
f 19/5/2 84/56/2 70/110/2
f 14/14/2 79/13/2 78/100/2
f 9/39/5 73/38/5 74/105/5
f 43/84/4 92/107/4 81/99/4
f 4/24/2 68/23/2 67/98/2
f 59/86/2 95/87/2 92/107/2
